<svg xmlns="http://www.w3.org/2000/svg" viewBox="0 0 64 64" fill="none">
  <defs>
    <linearGradient id="g1" x1="0" y1="0" x2="64" y2="64" gradientUnits="userSpaceOnUse">
      <stop offset="0%" stop-color="#0ea5e9"/>
      <stop offset="50%" stop-color="#8b5cf6"/>
      <stop offset="100%" stop-color="#ec4899"/>
    </linearGradient>
    <linearGradient id="g2" x1="10" y1="20" x2="54" y2="50" gradientUnits="userSpaceOnUse">
      <stop offset="0%" stop-color="#0ea5e9"/>
      <stop offset="100%" stop-color="#8b5cf6"/>
    </linearGradient>
  </defs>
  <!-- Background circle -->
  <circle cx="32" cy="32" r="30" fill="url(#g1)" opacity="0.08"/>
  <circle cx="32" cy="32" r="30" stroke="url(#g1)" stroke-width="1.5" fill="none" opacity="0.4"/>
  <!-- Hummingbird / data icon - stylized -->
  <path d="M18 28 C18 20, 28 14, 36 20 L40 24 C44 28, 44 36, 36 38 L28 38 C22 38, 18 34, 18 28Z" fill="url(#g2)" opacity="0.85"/>
  <!-- Wing -->
  <path d="M28 22 C24 18, 16 20, 14 26 C12 30, 14 34, 18 32" stroke="url(#g1)" stroke-width="2" fill="none" stroke-linecap="round"/>
  <!-- Beak -->
  <path d="M36 20 L48 16" stroke="url(#g1)" stroke-width="2" stroke-linecap="round"/>
  <!-- Data dots representing 6 dimensions -->
  <circle cx="22" cy="46" r="2.5" fill="#0ea5e9"/>
  <circle cx="30" cy="48" r="2.5" fill="#8b5cf6"/>
  <circle cx="38" cy="46" r="2.5" fill="#ec4899"/>
  <circle cx="46" cy="44" r="2.5" fill="#f59e0b"/>
  <circle cx="26" cy="50" r="1.5" fill="#10b981" opacity="0.7"/>
  <circle cx="42" cy="48" r="1.5" fill="#ef4444" opacity="0.7"/>
  <!-- Connecting data lines -->
  <polyline points="22,46 30,48 38,46 46,44" stroke="url(#g1)" stroke-width="1" fill="none" opacity="0.4"/>
</svg>
